<svg xmlns="http://www.w3.org/2000/svg" width="195.667" height="58.859" viewBox="0 0 195.667 58.859">
  <g id="Group_964" data-name="Group 964" transform="translate(-1566 -13.141)">
    <g id="Group_961" data-name="Group 961">
      <g id="Group_470" data-name="Group 470" transform="translate(10 -13)">
        <g id="Group_469" data-name="Group 469" transform="translate(1702 26.141)">
          <g id="Group_468" data-name="Group 468">
            <g id="Group_467" data-name="Group 467">
              <circle id="Ellipse_1" data-name="Ellipse 1" cx="21.5" cy="21.5" r="21.5" transform="translate(0 8.859)" fill="#c3073f"/>
              <path id="Polygon_1" data-name="Polygon 1" d="M6.495,0,12.99,19.1H0Z" transform="matrix(0.966, 0.259, -0.259, 0.966, 17.211, 0.065)" fill="#c3073f"/>
              <path id="Polygon_2" data-name="Polygon 2" d="M6.495,0,12.99,19.1H0Z" transform="matrix(0.961, -0.276, 0.276, 0.961, 10.609, 3.58)" fill="#c3073f"/>
              <path id="Path_2" data-name="Path 2" d="M2250,329.333" transform="translate(-2200.333 -282.576)" fill="none" stroke="#707070" stroke-width="1"/>
              <path id="Path_3" data-name="Path 3" d="M1.253,0,12.184,6.58,0,13.244" transform="translate(27.725 24.358) rotate(8)" fill="none" stroke="#f2f1f1" stroke-linecap="round" stroke-linejoin="bevel" stroke-width="3" stroke-dasharray="0 4"/>
              <path id="Path_4" data-name="Path 4" d="M3.872,0,14.508,7.547,0,12.666" transform="translate(19.78 35.289) rotate(169)" fill="none" stroke="#f2f1f1" stroke-linecap="round" stroke-linejoin="bevel" stroke-width="3" stroke-dasharray="0 4"/>
              <line id="Line_1" data-name="Line 1" x1="10" y2="27" transform="translate(18 16.859)" fill="none" stroke="#f2f1f1" stroke-linecap="round" stroke-width="3" stroke-dasharray="0 4"/>
            </g>
          </g>
        </g>
      </g>
      <text id="انــــــــــار_سافت" data-name="انــــــــــار سافت" transform="translate(1566 59)" fill="#c3073f" font-size="26" font-family="Vazir-Bold, Vazir" font-weight="700"><tspan x="0" y="0">انــــــــــار سافت</tspan></text>
    </g>
  </g>
</svg>
